:SAMPLES-PER-SECOND 30
:FULLY-SPECIFIED
:DEGREES
238
root  3.85841 39.9023 -1.02536 118.635 87.1541 119.573
RightUpLeg  3.27282 -12.4325 -6.16986
RightLeg  15.654 -6.55627 2.05222
RightFoot  -23.1005 0.744321 8.73905
RightToes  0.00048216 0.542163 -0.142577
Spine  8.7734 0.578511 7.30985
Spine1  4.68368 2.16431 -3.09568
HEad  8.1906 -0.691685 -2.26629
LeftShoulder1  3.895 -7.74813 -28.5152
LeftArm  -18.1698 22.2569 -8.49243
LeftForeArm  20.6703 -15.6989 -2.23536
LeftHand  -0.25398 0.0180481 5.50724
RightShoulder  2.5312 4.90156 23.9352
RightArm  -25.9627 -21.6162 16.642
RightForeArm  -9.94536 8.73422 2.04879
RightHand  -3.47668 9.63984 -26.8189
LeftUpLeg  -12.7725 7.29962 -0.246974
LeftLeg  31.4597 3.59295 2.71745
LeftFoot  -6.44973 0.218122 -4.21142
LeftToes  1.06244e-005 4.65855e-005 -8.18506e-006
239
root  3.45655 39.9569 -1.02657 120.86 87.1577 121.649
RightUpLeg  2.84406 -12.5017 -6.10129
RightLeg  15.0777 -6.11957 2.28334
RightFoot  -23.49 0.912798 10.0573
RightToes  0.00048216 0.542163 -0.142577
Spine  8.09123 0.481533 6.13305
Spine1  3.95979 1.78331 -2.39987
HEad  8.00567 -0.199742 -1.98998
LeftShoulder1  3.30709 -6.99427 -25.2854
LeftArm  -19.4194 22.4904 -5.58125
LeftForeArm  19.8285 -17.2465 -2.34593
LeftHand  -0.25398 0.0180481 5.50724
RightShoulder  2.02542 3.84458 21.2334
RightArm  -25.832 -21.6306 12.7095
RightForeArm  -16.5629 9.9325 2.58905
RightHand  -3.56764 9.67644 -27.4189
LeftUpLeg  -9.46707 7.64387 0.0141922
LeftLeg  29.8808 3.0361 2.22823
LeftFoot  -7.89331 0.196189 -4.98273
LeftToes  1.06244e-005 4.65855e-005 -8.18506e-006
240
root  3.0769 40.0282 -1.03785 126.811 86.9571 127.493
RightUpLeg  2.60775 -12.577 -6.05447
RightLeg  14.3149 -6.09126 2.45646
RightFoot  -23.6718 1.03132 11.011
RightToes  0.00048216 0.542163 -0.142577
Spine  7.68141 0.146994 4.86144
Spine1  3.13611 1.17628 -1.88154
HEad  7.82181 0.37973 -1.48291
LeftShoulder1  2.71775 -6.09149 -21.9321
LeftArm  -21.1661 22.6182 -3.27607
LeftForeArm  20.5772 -19.0261 -2.62853
LeftHand  -0.25398 0.0180481 5.50724
RightShoulder  1.62691 2.97295 18.6176
RightArm  -25.7312 -21.1678 9.52026
RightForeArm  -19.1644 11.4084 3.03027
RightHand  -3.68673 9.98368 -27.7524
LeftUpLeg  -6.03413 7.93695 -0.00664322
LeftLeg  26.1541 3.24355 2.06087
LeftFoot  -9.77906 0.136677 -5.68522
LeftToes  1.06244e-005 4.65855e-005 -8.18506e-006
241
root  2.72689 40.1271 -1.0739 134.244 86.6405 134.925
RightUpLeg  2.66186 -12.4264 -5.95358
RightLeg  13.2185 -6.5103 2.56212
RightFoot  -23.4277 1.0567 11.4551
RightToes  0.00048216 0.542163 -0.142577
Spine  7.51754 -0.213388 3.9201
Spine1  2.33799 0.633058 -1.79444
HEad  7.80155 0.658196 -0.819011
LeftShoulder1  2.16809 -5.10251 -18.5806
LeftArm  -23.4896 22.1168 -1.87659
LeftForeArm  22.0004 -20.4161 -2.90891
LeftHand  -0.25398 0.0180481 5.50724
RightShoulder  1.33657 2.32509 16.2354
RightArm  -25.4473 -20.7093 6.76878
RightForeArm  -18.153 12.5949 3.26495
RightHand  -3.82468 10.5033 -27.848
LeftUpLeg  -2.80897 8.16355 -0.346004
LeftLeg  21.1299 4.42464 2.23138
LeftFoot  -11.8608 0.0509841 -5.03695
LeftToes  1.06244e-005 4.65855e-005 -8.18506e-006
242
root  2.41868 40.2481 -1.13228 139.136 86.3728 139.735
RightUpLeg  2.68518 -12.0942 -5.80556
RightLeg  11.9363 -6.97878 2.61242
RightFoot  -22.6994 0.995003 11.5231
RightToes  0.00048216 0.542163 -0.142577
Spine  7.32753 -0.356598 3.14094
Spine1  1.69277 0.31516 -1.79085
HEad  8.0066 0.633212 -0.260061
LeftShoulder1  1.73895 -4.22862 -15.6534
LeftArm  -25.773 21.0914 -1.22663
LeftForeArm  22.7313 -21.2154 -3.10458
LeftHand  -0.25398 0.0180481 5.50724
RightShoulder  1.07714 1.64423 14.0229
RightArm  -24.9108 -20.123 4.45012
RightForeArm  -16.3796 13.312 3.41128
RightHand  -3.93233 10.8768 -27.9696
LeftUpLeg  -0.499584 8.15486 -0.8704
LeftLeg  16.2144 6.63193 2.26281
LeftFoot  -12.989 0.0356341 -2.79663
LeftToes  1.06244e-005 4.65855e-005 -8.18506e-006
243
root  2.13285 40.3635 -1.19448 142.622 86.1394 142.91
RightUpLeg  2.29728 -11.7919 -5.60465
RightLeg  10.9636 -7.48264 2.58708
RightFoot  -21.8809 0.88931 11.2221
RightToes  0.00048216 0.542163 -0.142577
Spine  7.07043 -0.361646 2.16663
Spine1  1.14405 0.0661645 -1.30141
HEad  8.40623 0.552637 0.0834002
LeftShoulder1  1.47129 -3.67387 -13.4714
LeftArm  -27.3138 20.0233 -0.859235
LeftForeArm  22.3101 -21.3831 -3.16366
LeftHand  -0.25398 0.0180481 5.50724
RightShoulder  0.822 0.815184 11.938
RightArm  -24.6831 -19.1626 2.92066
RightForeArm  -15.8036 13.5944 3.50664
RightHand  -4.04742 11.1215 -28.3404
LeftUpLeg  0.333505 6.63832 -1.16723
LeftLeg  12.9714 9.75333 1.58621
LeftFoot  -12.6032 0.0682035 -0.582953
LeftToes  1.06244e-005 4.65855e-005 -8.18506e-006
244
root  1.84336 40.4528 -1.24692 145.964 85.844 145.902
RightUpLeg  1.6437 -11.5356 -5.40194
RightLeg  10.5223 -8.21817 2.5033
RightFoot  -21.4154 0.802314 10.7293
RightToes  0.00048216 0.542163 -0.142577
Spine  7.08263 -0.405247 1.07439
Spine1  0.561513 -0.217938 -0.484987
HEad  8.88397 0.521267 0.454309
LeftShoulder1  1.33699 -3.49927 -11.9178
LeftArm  -27.9534 19.1053 -0.524834
LeftForeArm  21.4887 -20.8693 -2.98824
LeftHand  -0.25398 0.0180481 5.50724
RightShoulder  0.632744 0.105981 10.2851
RightArm  -24.9855 -18.1023 2.1479
RightForeArm  -16.5741 13.5358 3.53386
RightHand  -4.2387 11.5535 -28.8921
LeftUpLeg  0.0916646 6.114 -1.09585
LeftLeg  11.6272 10.3129 0.752323
LeftFoot  -11.5413 0.0703024 -0.167631
LeftToes  1.06244e-005 4.65855e-005 -8.18506e-006
